<?xml version="1.0" encoding="utf-8"?>
<!-- Generator: Adobe Illustrator 17.0.0, SVG Export Plug-In . SVG Version: 6.00 Build 0)  -->
<!DOCTYPE svg PUBLIC "-//W3C//DTD SVG 1.1//EN" "http://www.w3.org/Graphics/SVG/1.1/DTD/svg11.dtd">
<svg version="1.1" id="Layer_1" xmlns="http://www.w3.org/2000/svg" xmlns:xlink="http://www.w3.org/1999/xlink" x="0px" y="0px"
	 width="300px" height="192.141px" viewBox="0 53.93 300 192.141" enable-background="new 0 53.93 300 192.141"
	 xml:space="preserve">
<path fill="#0082D2" d="M300,121.951v56.092c0,19.594-16.605,37.348-46.746,49.992c-4.09,1.717-8.373,3.316-12.832,4.799
	c-23.543,7.846-51.92,12.41-81.926,13.131c-2.818,0.07-5.648,0.105-8.496,0.105c-38.859,0-75.533-6.404-103.254-18.035
	c-1.688-0.709-3.334-1.436-4.939-2.174C14.795,213.393,0,196.541,0,178.043v-56.092L300,121.951L300,121.951z"/>
<path fill="#E1E1E4" d="M41.807,169.764v56.098C14.795,213.393,0,196.541,0,178.043v-54.768L41.807,169.764z"/>
<path fill="#00ACEA" d="M300,121.951c0,19.594-16.6,37.348-46.752,49.992c-4.09,1.717-8.367,3.316-12.826,4.805
	c-23.543,7.84-51.92,12.404-81.926,13.125c-2.818,0.07-5.648,0.105-8.496,0.105c-38.859,0-75.527-6.404-103.248-18.035
	c-1.693-0.709-3.34-1.436-4.945-2.18c-23.297-10.746-37.5-24.756-40.969-40.271C0.281,127.014,0,124.5,0,121.951
	c0-19.588,16.6-37.342,46.752-49.986c8.162-3.422,17.098-6.393,26.643-8.883H73.4c20.408-5.326,43.57-8.438,67.811-9.035
	c2.912-0.082,5.848-0.117,8.789-0.117c37.014,0,72.035,5.812,99.234,16.412c1.359,0.527,2.695,1.072,4.014,1.623
	c24.598,10.313,40.172,24.029,45.082,39.363C299.438,114.797,300,118.342,300,121.951z"/>
<g>
	<ellipse fill="#FFFFFF" cx="150" cy="120.592" rx="83.514" ry="24.449"/>
	<path fill="#FFFFFF" d="M141.211,54.047v33.65c-16.799,0.193-33.791,3.123-33.791,3.123L73.4,63.082
		C93.809,57.756,116.971,54.645,141.211,54.047z"/>
	<path fill="#FFFFFF" d="M298.33,111.328h-58.975c0,0-6.738-8.594-24.121-14.062l34-26.924c1.359,0.527,2.695,1.072,4.014,1.623
		C277.846,82.277,293.42,95.994,298.33,111.328z"/>
</g>
<path fill="#E1E1E4" d="M240.422,176.748v56.086c-23.543,7.846-51.92,12.41-81.926,13.131v-56.092L240.422,176.748z"/>
<g>
	<path fill="#FFFFFF" d="M240.422,176.748c-23.543,7.84-51.92,12.404-81.926,13.125v-35.859c0,0,21.094-0.791,37.793-4.014
		L240.422,176.748z"/>
	<path fill="#FFFFFF" d="M83.76,145.037l-41.953,24.727c-23.297-10.746-37.5-24.756-40.969-40.271h59.121
		C59.959,129.492,66.483,140.479,83.76,145.037z"/>
</g>
<text transform="matrix(1.3333 0 0 1 120.5 129.4922)" fill="#0082D2" font-family="'MyriadPro-Bold'" font-size="27">100</text>
</svg>
